<?xml version="1.0" encoding="utf-8"?>
<!-- Generator: Adobe Illustrator 19.2.1, SVG Export Plug-In . SVG Version: 6.00 Build 0)  -->
<svg version="1.1" id="Layer_1" xmlns="http://www.w3.org/2000/svg" xmlns:xlink="http://www.w3.org/1999/xlink" x="0px" y="0px"
	 viewBox="0 0 160 160" style="enable-background:new 0 0 160 160;" xml:space="preserve">
<style type="text/css">
	.st0{fill:#363636;}
	.st1{fill:none;}
</style>
<title>Asset 6</title>
<g id="Layer_2">
	<g id="Layer_4">
		<g>
			<path class="st0" d="M100.8,39c0-0.8-0.6-1.4-1.3-1.5h-43c-0.8,0.1-1.4,0.7-1.4,1.5v3.5h45.7V39z"/>
			<path class="st0" d="M101.7,119.3h-9.6v-10.4h-7v2.5H66.3c-0.5-1.3-1.8-2.1-3.2-2.2h-12c-2,0-3.6,1.6-3.6,3.5v3
				c0,1.9,1.6,3.5,3.6,3.5h12c1.5,0,2.8-0.9,3.3-2.3h18.8v2.3h-9.5c-0.6,0-1,0.4-1,1v3.2c0,0.5,0.5,1,1,1h26.1c0.5,0,0.9-0.5,0.9-1
				v-3.2C102.7,119.8,102.3,119.4,101.7,119.3C101.7,119.3,101.7,119.3,101.7,119.3z"/>
			<path class="st0" d="M108.2,49.9c-0.9-3-3.6-5.1-6.8-5H54.6c-3.9,0-7.1,3.1-7.2,7v46.9c0,3.9,3.2,7.1,7.2,7.1h46.7
				c3.9,0,7.1-3.2,7.1-7.1V88.4c10.6-7.4,13.2-21.9,5.8-32.5C112.7,53.6,110.6,51.5,108.2,49.9L108.2,49.9z M59.7,99.7
				c-3.3,0-5.9-2.6-5.9-5.9c0-3.3,2.6-5.9,5.9-5.9c3.3,0,5.9,2.6,5.9,5.9c0,0,0,0,0,0C65.6,97,63,99.6,59.7,99.7
				C59.7,99.7,59.7,99.7,59.7,99.7z M65.7,67c0,0.8-0.6,1.4-1.4,1.5c0,0-0.1,0-0.1,0h-8.9c-0.8,0-1.4-0.6-1.4-1.4V52.9
				c0-0.8,0.6-1.4,1.4-1.4h8.9c0.8,0,1.4,0.6,1.4,1.4L65.7,67L65.7,67z M95.3,89.4c-11.1,0-20.1-8.9-20.2-20.1
				c0-11.1,8.9-20.1,20.1-20.2s20.1,8.9,20.2,20.1c0,0,0,0,0,0.1C115.3,80.3,106.4,89.3,95.3,89.4C95.3,89.4,95.3,89.4,95.3,89.4z"
				/>
			<ellipse class="st0" cx="95.3" cy="69.2" rx="12.2" ry="12.2"/>
			<circle class="st0" cx="79.1" cy="69.2" r="1.4"/>
			<circle class="st0" cx="111.5" cy="69.2" r="1.4"/>
			<circle class="st0" cx="86.6" cy="55.5" r="1.4"/>
			<ellipse class="st0" cx="103.9" cy="83" rx="1.4" ry="1.4"/>
			<circle class="st0" cx="103.2" cy="55.1" r="1.4"/>
			<circle class="st0" cx="87.3" cy="83.4" r="1.4"/>
		</g>
		<rect class="st1" width="160" height="160"/>
	</g>
</g>
</svg>
