<svg xmlns="http://www.w3.org/2000/svg" viewBox="0 0 160 160"><defs><style>.cls-1{fill:none;}.cls-2{fill:#363636;}</style></defs><title>Asset 11</title><g id="Layer_2" data-name="Layer 2"><g id="Layer_4" data-name="Layer 4"><rect class="cls-1" width="160" height="160"/><path class="cls-2" d="M119.82,47H40.33a3.19,3.19,0,0,0-3.19,3.19V96.61a3.19,3.19,0,0,0,3.19,3.19h79.49A3.19,3.19,0,0,0,123,96.61V50.2A3.19,3.19,0,0,0,119.82,47ZM45.39,80.24h-.23A3.19,3.19,0,0,1,42,77V69.76a3.19,3.19,0,0,1,3.19-3.19h.23Zm61.23,15.17H50.34v-44h56.28Zm8.78-17.86a4.15,4.15,0,1,1,4.15-4.15A4.15,4.15,0,0,1,115.4,77.55Z"/><rect class="cls-2" x="68.5" y="43" width="23.16" height="2.76"/><path class="cls-2" d="M83.61,107.86v-3h8v-2.76H68.5v2.76h8v35.25a6.07,6.07,0,0,0-3.63,5.56V160H87.24V145.69a6.06,6.06,0,0,0-3.64-5.56v-28h4.8l5.05,1.21v-6.71l-5.05,1.21Z"/></g></g></svg>