<?xml version="1.0" encoding="utf-8"?>
<!-- Generator: Adobe Illustrator 19.2.1, SVG Export Plug-In . SVG Version: 6.00 Build 0)  -->
<svg version="1.1" id="Layer_1" xmlns="http://www.w3.org/2000/svg" xmlns:xlink="http://www.w3.org/1999/xlink" x="0px" y="0px"
	 viewBox="0 0 160 160" style="enable-background:new 0 0 160 160;" xml:space="preserve">
<style type="text/css">
	.st0{fill:#363636;}
	.st1{fill:none;}
</style>
<title>Asset 9</title>
<g id="Layer_2">
	<g id="Layer_2-2">
		<g>
			<path class="st0" d="M26,49.2c-5.5,0.5-10.2,1.6-11.5,2.7c-0.7,0.6-0.7,0.6-0.2,1.2c0.6,0.7,3.7,1.7,7.2,2.2
				c4,0.7,12.5,0.7,13.7,0c1.1-0.5,1.8-1.8,1.6-3c0.2-1.4-0.8-2.7-2.2-2.8C31.8,49,28.9,48.9,26,49.2z"/>
			<path class="st0" d="M39.8,49.4c-0.2,1.4-0.3,2.7-0.3,4c0,4,0.2,3.7-2.2,3.8l-1,0.1l-0.1,2.5L36,62.4l-1.2,0.3
				c-2.5,0.5-4.1,2.8-3.8,5.2c0,1.7,1,3.3,2.6,4c1.1,0.5,1.5,0.5,11.2,0.5c5.5,0,10.1,0.1,10.2,0.2c0.1,0.1-1.1,9.3-2.6,20.3
				c-1.5,11-2.7,20.7-2.7,21.4c-0.2,1.2,0.6,2.4,1.9,2.6c0.2,0,0.3,0,0.5,0c1.2,0.1,2.2-0.8,2.3-1.9c0.1-0.5,1.5-10.2,3-21.5
				C58.9,82.3,60.3,73,60.3,73c0.8,1,1.5,2,2.2,3.1c2.9,4.5,2.4,4.2,7.6,4.2h4.4v5.5l-5.1,0.1c-4.7,0.1-5.2,0.1-5.9,0.6
				c-1.6,1.1-1.6,1.4-1.6,10.8s0,9.7,1.5,10.8l0.8,0.7h31.3l0.8-0.7c1.5-1.3,1.5-1.5,1.5-10.8s-0.1-9.7-1.6-10.8
				c-0.7-0.5-1.2-0.5-5.9-0.6l-5.1-0.1v-5.5h4.4c5.2,0,4.7,0.3,7.6-4.2c0.7-1.1,1.4-2.1,2.2-3.1c0.1,0,1.4,9.3,2.9,20.6
				s2.9,21,3,21.5c0.2,1.1,1.2,2,2.3,1.9c1.2,0.1,2.3-0.9,2.4-2.1c0-0.2,0-0.3,0-0.5c0-0.7-1.3-10.3-2.7-21.4
				c-1.4-11.1-2.6-20.2-2.5-20.3c0.1-0.1,4.6-0.2,10.2-0.2c9.8,0,10.1,0,11.2-0.5c1.6-0.8,2.6-2.3,2.6-4c0.3-2.5-1.3-4.7-3.8-5.2
				l-1.2-0.3l-0.1-2.5l-0.1-2.5l-1-0.1c-2.3-0.2-2.2,0.1-2.2-3.8c0-1.4,0-2.8-0.3-4c-0.2-0.4-0.5-0.5-1.4-0.5c-0.5,0-1,0.1-1.4,0.3
				c-0.2,0.2-0.3,1.5-0.3,3.8c0,2.4-0.1,3.6-0.3,3.8c-0.5,0.2-1.1,0.4-1.7,0.3c-1.6,0-1.7,0-1.7,3.1v2.3H46.5v-2.3
				c0-3.1,0-3.1-1.7-3.1c-0.6,0-1.1-0.1-1.7-0.3c-0.2-0.2-0.3-1.5-0.3-3.8c0-2.4-0.1-3.6-0.3-3.8c-0.4-0.2-0.9-0.3-1.4-0.3
				C40.3,48.9,40,49,39.8,49.4z M82.5,89c2.9,0.9,5.2,3.2,6.2,6.1c0.4,1.9,0.3,3.8-0.3,5.7c-0.9,2.1-2.5,3.8-4.6,4.8
				c-1.3,0.6-1.8,0.7-3.9,0.7c-2.1,0-2.6-0.1-3.9-0.7c-2-1.1-3.6-2.8-4.6-4.8c-0.6-1.9-0.7-3.8-0.3-5.7c0.9-2.9,3.2-5.1,6.1-6.1
				C79,88.4,80.8,88.4,82.5,89z"/>
			<path class="st0" d="M77.8,92.7c-2.1,1.1-3.3,3.4-3.1,5.6c0.6,2.9,3.4,4.8,6.4,4.2c0.6-0.1,1.1-0.3,1.6-0.6c2-1.2,3-3.5,2.4-5.7
				c-0.6-2.4-2.7-4-5.2-4C79.2,92.3,78.5,92.5,77.8,92.7z"/>
			<path class="st0" d="M50.1,49.1c-3.9,0.7-4.5,1.1-4.5,3.4c0,1.8,0.5,2.4,2.3,3c1.5,0.5,7.2,0.5,10.5,0.1
				c6.9-0.8,11.3-2.5,9.7-3.7c-1.3-0.9-4.9-1.9-9-2.4C56,49.1,53.1,49,50.1,49.1z"/>
			<path class="st0" d="M103.4,49.2c-6.3,0.6-11.9,2.1-11.9,3.2c0,1.7,7.8,3.5,15.6,3.5c5.8,0,7.2-0.6,7.2-3.3
				c0.2-1.5-0.8-2.8-2.3-3.1h-0.1C109.1,49,106.2,48.9,103.4,49.2z"/>
			<path class="st0" d="M126.7,49.2c-1.8,0.2-3,0.8-3.4,1.5c-0.4,1.2-0.3,2.4,0.2,3.6c0.9,1.3,1.7,1.5,7.1,1.5
				c2.6,0.1,5.3-0.1,7.9-0.5c3.5-0.6,6.6-1.5,7.2-2.2c0.5-0.5,0.5-0.5-0.2-1.2c-1.3-1.1-6-2.2-11.9-2.7
				C131.2,48.9,128.9,48.9,126.7,49.2z"/>
		</g>
		<rect class="st1" width="160" height="160"/>
	</g>
</g>
</svg>
