<svg xmlns="http://www.w3.org/2000/svg" viewBox="0 0 160 160"><defs><style>.cls-1{fill:#363636;}.cls-2{fill:none;}</style></defs><title>Asset 10</title><g id="Layer_2" data-name="Layer 2"><g id="Layer_3" data-name="Layer 3"><path class="cls-1" d="M117.13,86.64V74a2.35,2.35,0,0,1,2.33-2.37l8.33,1.58V65c0-2.35-1.71-3.43-4.2-4.26L100.4,54.18c1.62,1.39,1.89,2,1.89,4.4v45.21c0,2.36-.45,4.07-2,5.21l23.26-7.06c2.4-.83,4.2-4.22,4.2-6.57V87.44L119.47,89A2.35,2.35,0,0,1,117.13,86.64Z"/><path class="cls-1" d="M128.13,75l-7.6-1.44a1.84,1.84,0,0,0-1.82,1.85v9.87a1.84,1.84,0,0,0,1.82,1.85l7.6-1.43c1.15-.42,1.82-.83,1.82-1.85v-7C130,75.81,129.19,75.32,128.13,75Z"/><path class="cls-1" d="M100.17,58.48c0-5.08-4.23-4.46-4.23-4.46s-57.11,4.71-60.1,5.12S33,63.53,33,63.53s0,32.54,0,36.28,2.6,3.75,2.6,3.75L52.08,105,60.21,93.3s1.11-1.83,2.5-1.83,2.43,1.86,2.43,1.86l9.06,13.52s18.9,1.91,22.52,1.91,3.44-5,3.44-5ZM46,91.19c-3.7,0-6.7-4.6-6.7-10.27s3-10.27,6.7-10.27,6.7,4.6,6.7,10.27S49.68,91.19,46,91.19Zm36.16,1.43c-4.66,0-8.44-5.24-8.44-11.7s3.78-11.7,8.44-11.7,8.44,5.24,8.44,11.7S86.8,92.62,82.14,92.62Z"/><rect class="cls-2" width="160" height="160"/></g></g></svg>