<?xml version="1.0" encoding="utf-8"?>
<!-- Generator: Adobe Illustrator 19.2.1, SVG Export Plug-In . SVG Version: 6.00 Build 0)  -->
<svg version="1.1" id="Layer_1" xmlns="http://www.w3.org/2000/svg" xmlns:xlink="http://www.w3.org/1999/xlink" x="0px" y="0px"
	 viewBox="0 0 160 160" style="enable-background:new 0 0 160 160;" xml:space="preserve">
<style type="text/css">
	.st0{fill:#363636;}
	.st1{fill:none;}
</style>
<title>Asset 7</title>
<g id="Layer_2">
	<g id="Layer_4">
		<g>
			<path class="st0" d="M108.5,64.2H107v-4.6c0-5-4-9.1-9.1-9.2H63.1c-5,0-9.1,4.2-9.1,9.2v42.9c0,5,4,9.1,9.1,9.2h34.8
				c5,0,9.1-4.1,9.1-9.2V99h1.5c0.4,0,0.8-0.3,0.8-0.8c0,0,0,0,0,0V84.5c0-0.4-0.3-0.8-0.7-0.8c0,0,0,0,0,0H107v-8.8h1.5
				c0.8,0,1.5-0.7,1.5-1.5v-7.6C110,64.9,109.3,64.2,108.5,64.2z M88.1,61.1c3,0,5.4,2.3,5.4,5.3c0,3-2.3,5.4-5.3,5.4
				s-5.4-2.3-5.4-5.3c0,0,0,0,0-0.1C82.8,63.5,85.1,61.1,88.1,61.1C88.1,61.1,88.1,61.1,88.1,61.1z M72.9,61.1c3,0,5.4,2.3,5.4,5.3
				c0,3-2.3,5.4-5.3,5.4s-5.4-2.3-5.4-5.3c0,0,0,0,0-0.1C67.6,63.5,70,61.1,72.9,61.1C72.9,61.1,72.9,61.1,72.9,61.1z M59.3,81.4
				c0-2.9,2.4-5.3,5.4-5.2c2.9,0,5.3,2.4,5.2,5.4c0,2.9-2.4,5.2-5.3,5.2C61.7,86.7,59.3,84.3,59.3,81.4
				C59.3,81.4,59.3,81.4,59.3,81.4z M72.9,100.9c-3,0-5.4-2.3-5.4-5.3s2.3-5.4,5.3-5.4s5.4,2.3,5.4,5.3c0,0,0,0,0,0.1
				C78.3,98.5,75.9,100.9,72.9,100.9C72.9,100.9,72.9,100.9,72.9,100.9L72.9,100.9z M74.4,81c0-3.3,2.8-6,6.1-6s6,2.8,6,6.1
				c0,3.3-2.7,6-6.1,6C77.1,87.1,74.4,84.4,74.4,81z M88.1,100.9c-3,0-5.4-2.3-5.4-5.3s2.3-5.4,5.3-5.4s5.4,2.3,5.4,5.3
				c0,0,0,0,0,0.1C93.4,98.5,91,100.9,88.1,100.9L88.1,100.9z M96.4,86.8c-3,0-5.4-2.3-5.4-5.3s2.3-5.4,5.3-5.4s5.4,2.3,5.4,5.3
				c0,0,0,0,0,0.1C101.7,84.3,99.3,86.7,96.4,86.8C96.4,86.8,96.4,86.8,96.4,86.8z"/>
			<path class="st0" d="M63.7,47.3h33.7c0.7,0,1.3-0.5,1.3-1.2c0-0.1,0-0.2,0-0.3L97,35l0,0c-0.3-1.7-1.8-2.9-3.5-3h-26
				c-1.7,0.1-3.2,1.3-3.5,3l-1.7,10.8c-0.1,0.7,0.3,1.4,1,1.5C63.5,47.3,63.6,47.3,63.7,47.3z"/>
			<path class="st0" d="M97.3,114.7H63.7c-0.7,0-1.3,0.5-1.3,1.2c0,0.1,0,0.2,0,0.3L64,127c0.3,1.7,1.8,3,3.5,3h26
				c1.7-0.1,3.2-1.3,3.5-3l0,0l1.6-10.8c0.2-0.7-0.3-1.4-1-1.5C97.5,114.7,97.4,114.7,97.3,114.7z"/>
		</g>
		<rect class="st1" width="160" height="160"/>
	</g>
</g>
</svg>
