<svg xmlns="http://www.w3.org/2000/svg" viewBox="0 0 160 160"><defs><style>.cls-1{fill:#363636;}.cls-2{fill:none;}</style></defs><title>Asset 8</title><g id="Layer_2" data-name="Layer 2"><g id="Layer_4" data-name="Layer 4"><path class="cls-1" d="M126.47,52.57a10.41,10.41,0,0,1,1.21,4.82v21.1a10.51,10.51,0,0,1-7.25,9.9,18.69,18.69,0,0,1-8.05,10.43c-8.68,5.23-31.12,4.84-31.2,4.84s-22.51.4-31.19-4.84a18.73,18.73,0,0,1-8-10.28,10.51,10.51,0,0,1-7.76-10.05V57.39a10.41,10.41,0,0,1,1.14-4.69c-3.66.91-7.83,2.72-7.83,6.23v30c0,10.25,11.84,24.43,53.66,24.43s53.66-14.18,53.66-24.43v-30C134.81,55.25,130.24,53.44,126.47,52.57Z"/><path class="cls-1" d="M48.06,87h65.52a10.08,10.08,0,0,0,10.07-10.08V58.44a10.08,10.08,0,0,0-10.07-10.07H48.06A10.08,10.08,0,0,0,38,58.44V76.88A10.08,10.08,0,0,0,48.06,87Zm63.13-29a1.57,1.57,0,1,1-1.57,1.57A1.57,1.57,0,0,1,111.19,58Zm0,4a1.57,1.57,0,1,1-1.57,1.57A1.57,1.57,0,0,1,111.19,62Zm0,4a1.57,1.57,0,1,1-1.57,1.57A1.57,1.57,0,0,1,111.19,66Zm0,3.83a1.57,1.57,0,1,1-1.57,1.57A1.57,1.57,0,0,1,111.19,69.87Zm0,4a1.57,1.57,0,1,1-1.57,1.57A1.57,1.57,0,0,1,111.19,73.91Zm-4-15.94a1.57,1.57,0,1,1-1.57,1.57A1.57,1.57,0,0,1,107.16,58Zm0,15.94a1.57,1.57,0,1,1-1.57,1.57A1.57,1.57,0,0,1,107.16,73.91Zm-4-15.94a1.57,1.57,0,1,1-1.57,1.57A1.57,1.57,0,0,1,103.12,58Zm0,4a1.57,1.57,0,1,1-1.57,1.57A1.57,1.57,0,0,1,103.12,62Zm0,4a1.57,1.57,0,1,1-1.57,1.57A1.57,1.57,0,0,1,103.12,66Zm0,3.83a1.57,1.57,0,1,1-1.57,1.57A1.57,1.57,0,0,1,103.12,69.87Zm0,4a1.57,1.57,0,1,1-1.57,1.57A1.57,1.57,0,0,1,103.12,73.91ZM95.46,58a1.57,1.57,0,1,1-1.57,1.57A1.57,1.57,0,0,1,95.46,58Zm0,8.08a1.57,1.57,0,1,1-1.57,1.57A1.57,1.57,0,0,1,95.46,66Zm0,3.88A1.57,1.57,0,1,1,93.9,71.5,1.57,1.57,0,0,1,95.46,69.93Zm0,4a1.57,1.57,0,1,1-1.57,1.57A1.57,1.57,0,0,1,95.46,73.91ZM91.43,58a1.57,1.57,0,1,1-1.57,1.57A1.57,1.57,0,0,1,91.43,58Zm0,8.08a1.57,1.57,0,1,1-1.57,1.57A1.57,1.57,0,0,1,91.43,66Zm0,7.87a1.57,1.57,0,1,1-1.57,1.57A1.57,1.57,0,0,1,91.43,73.91ZM87.39,58a1.57,1.57,0,1,1-1.57,1.57A1.57,1.57,0,0,1,87.39,58Zm0,4a1.57,1.57,0,1,1-1.57,1.57A1.57,1.57,0,0,1,87.39,62Zm0,4a1.57,1.57,0,1,1-1.57,1.57A1.57,1.57,0,0,1,87.39,66Zm0,7.87a1.57,1.57,0,1,1-1.57,1.57A1.57,1.57,0,0,1,87.39,73.91ZM79.1,58a1.57,1.57,0,1,1-1.57,1.57A1.57,1.57,0,0,1,79.1,58Zm0,4a1.57,1.57,0,1,1-1.57,1.57A1.57,1.57,0,0,1,79.1,62Zm0,4a1.57,1.57,0,1,1-1.57,1.57A1.57,1.57,0,0,1,79.1,66Zm0,3.88a1.57,1.57,0,1,1-1.57,1.57A1.57,1.57,0,0,1,79.1,69.93Zm0,4a1.57,1.57,0,1,1-1.57,1.57A1.57,1.57,0,0,1,79.1,73.91ZM75.06,62a1.57,1.57,0,1,1-1.57,1.57A1.57,1.57,0,0,1,75.06,62Zm-8.5-.21A1.57,1.57,0,1,1,65,63.36,1.57,1.57,0,0,1,66.56,61.8Zm0,4A1.57,1.57,0,1,1,65,67.4,1.57,1.57,0,0,1,66.56,65.83Zm-4-8.08a1.57,1.57,0,1,1-1.57,1.57A1.57,1.57,0,0,1,62.52,57.76Zm0,4a1.57,1.57,0,1,1-1.57,1.57A1.57,1.57,0,0,1,62.52,61.8Zm0,4a1.57,1.57,0,1,1-1.57,1.57A1.57,1.57,0,0,1,62.52,65.83Zm0,4a1.57,1.57,0,1,1-1.57,1.57A1.57,1.57,0,0,1,62.52,69.87ZM58.26,61.8a1.57,1.57,0,1,1-1.57,1.57A1.57,1.57,0,0,1,58.26,61.8Zm0,4A1.57,1.57,0,1,1,56.7,67.4,1.57,1.57,0,0,1,58.26,65.83Zm0,4a1.57,1.57,0,1,1-1.57,1.57A1.57,1.57,0,0,1,58.26,69.87Zm0,4a1.57,1.57,0,1,1-1.57,1.57A1.57,1.57,0,0,1,58.26,73.91ZM53.8,57.76a1.57,1.57,0,1,1-1.57,1.57A1.57,1.57,0,0,1,53.8,57.76Zm0,4a1.57,1.57,0,1,1-1.57,1.57A1.57,1.57,0,0,1,53.8,61.8Zm0,4a1.57,1.57,0,1,1-1.57,1.57A1.57,1.57,0,0,1,53.8,65.83Zm0,4a1.57,1.57,0,1,1-1.57,1.57A1.57,1.57,0,0,1,53.8,69.87Zm-4-8.08a1.57,1.57,0,1,1-1.57,1.57A1.57,1.57,0,0,1,49.76,61.8Zm0,4a1.57,1.57,0,1,1-1.57,1.57A1.57,1.57,0,0,1,49.76,65.83Z"/><rect class="cls-2" width="160" height="160"/></g></g></svg>